<svg width="1000" height="356" xmlns="http://www.w3.org/2000/svg">

 <g>
  <title>background</title>
  <rect fill="none" id="canvas_background" height="358" width="1002" y="-1" x="-1"/>
 </g>
 <g>
  <title>Layer 1</title>
  <g id="svg_1">
   <path id="svg_2" d="m843.874,272.026c0,3.329 -4.559,6.027 -10.181,6.027l-147.638,0c-5.623,0 -10.182,-2.698 -10.182,-6.027l0,-56.255c0,-3.328 4.559,-6.027 10.182,-6.027l40.619,0l7.985,-13.065l8.944,13.065l90.089,0c5.623,0 10.181,2.699 10.181,6.027l0,56.255l0.001,0z" fill="#F7F8F8"/>
   <path id="svg_3" d="m833.692,278.554l-147.637,0c-5.89,0 -10.682,-2.928 -10.682,-6.527l0,-56.255c0,-3.599 4.792,-6.527 10.682,-6.527l40.338,0l8.241,-13.485l9.232,13.485l89.826,0c5.89,0 10.681,2.928 10.681,6.527l0,56.255c0.001,3.598 -4.791,6.527 -10.681,6.527zm-147.637,-68.31c-5.338,0 -9.682,2.479 -9.682,5.527l0,56.255c0,3.048 4.343,5.527 9.682,5.527l147.637,0c5.338,0 9.681,-2.479 9.681,-5.527l0,-56.255c0,-3.048 -4.343,-5.527 -9.681,-5.527l-90.353,0l-8.657,-12.646l-7.729,12.646l-40.898,0z" fill="#C9CACA"/>
  </g>
  <g id="svg_4">
   <path id="svg_5" d="m285.01,269.468c0,3.423 -2.903,6.197 -6.484,6.197l-94.027,0c-3.581,0 -6.484,-2.774 -6.484,-6.197l0,-57.842c0,-3.422 2.903,-6.197 6.484,-6.197l26.506,0l6.997,-13.434l6.971,13.434l53.553,0c3.581,0 6.484,2.775 6.484,6.197l0,57.842z" fill="#F7F8F8"/>
   <path id="svg_6" d="m278.525,276.165l-94.027,0c-3.851,0 -6.984,-3.004 -6.984,-6.697l0,-57.842c0,-3.693 3.133,-6.697 6.984,-6.697l26.203,0l7.301,-14.018l7.273,14.018l53.25,0c3.851,0 6.984,3.004 6.984,6.697l0,57.842c0.001,3.693 -3.133,6.697 -6.984,6.697zm-94.027,-70.237c-3.3,0 -5.984,2.556 -5.984,5.697l0,57.842c0,3.142 2.685,5.697 5.984,5.697l94.027,0c3.3,0 5.984,-2.556 5.984,-5.697l0,-57.842c0,-3.142 -2.685,-5.697 -5.984,-5.697l-53.857,0l-6.668,-12.85l-6.693,12.85l-26.809,0z" fill="#C9CACA"/>
  </g>
  <g id="svg_7">
   <path id="svg_8" d="m544.334,274.131c0,3.792 -3.48,6.865 -7.773,6.865l-112.722,0c-4.293,0 -7.774,-3.074 -7.774,-6.865l0,-64.073c0,-3.791 3.48,-6.865 7.774,-6.865l32.838,0l6.387,-12.2l6.478,12.2l67.019,0c4.293,0 7.773,3.074 7.773,6.865l0,64.073z" fill="#F7F8F8"/>
   <path id="svg_9" d="m536.561,281.497l-112.722,0c-4.562,0 -8.274,-3.304 -8.274,-7.365l0,-64.073c0,-4.061 3.712,-7.365 8.274,-7.365l32.535,0l6.687,-12.772l6.782,12.772l66.718,0c4.562,0 8.273,3.304 8.273,7.365l0,64.073c0,4.06 -3.711,7.365 -8.273,7.365zm-112.722,-77.803c-4.011,0 -7.274,2.855 -7.274,6.365l0,64.073c0,3.51 3.263,6.365 7.274,6.365l112.722,0c4.011,0 7.273,-2.855 7.273,-6.365l0,-64.073c0,-3.51 -3.263,-6.365 -7.273,-6.365l-67.319,0l-6.174,-11.628l-6.087,11.628l-33.142,0z" fill="#C9CACA"/>
  </g>
  <g id="svg_10">
   <path id="svg_11" d="m673.329,81.358c0,-3.027 -3.414,-5.481 -7.624,-5.481l-110.556,0c-4.21,0 -7.624,2.454 -7.624,5.481l0,51.161c0,3.026 3.414,5.48 7.624,5.48l32.166,0l7.227,11.883l5.195,-11.882l65.968,0c4.21,0 7.624,-2.454 7.624,-5.48l0,-51.162z" fill="#F7F8F8"/>
   <path id="svg_12" d="m594.615,150.965l-7.581,-12.465l-31.885,0c-4.479,0 -8.124,-2.683 -8.124,-5.98l0,-51.162c0,-3.298 3.645,-5.981 8.124,-5.981l110.556,0c4.479,0 8.124,2.683 8.124,5.981l0,51.161c0,3.298 -3.645,5.98 -8.124,5.98l-65.641,0l-5.449,12.466zm-39.466,-74.588c-3.928,0 -7.124,2.235 -7.124,4.981l0,51.161c0,2.746 3.196,4.98 7.124,4.98l32.447,0l6.873,11.301l4.94,-11.301l66.295,0c3.928,0 7.124,-2.234 7.124,-4.98l0,-51.161c0,-2.747 -3.196,-4.981 -7.124,-4.981l-110.555,0z" fill="#C9CACA"/>
  </g>
  <g id="svg_13">
   <path id="svg_14" d="m400.212,70.208c0,-3.5 -2.903,-6.337 -6.484,-6.337l-94.027,0c-3.581,0 -6.484,2.837 -6.484,6.337l0,59.147c0,3.499 2.903,6.336 6.484,6.336l26.506,0l6.997,13.738l6.971,-13.738l53.553,0c3.581,0 6.484,-2.837 6.484,-6.336l0,-59.147z" fill="#F7F8F8"/>
   <path id="svg_15" d="m333.205,150.533l-7.305,-14.341l-26.2,0c-3.851,0 -6.984,-3.066 -6.984,-6.836l0,-59.148c0,-3.77 3.133,-6.837 6.984,-6.837l94.027,0c3.851,0 6.984,3.067 6.984,6.837l0,59.147c0,3.77 -3.133,6.836 -6.984,6.836l-53.246,0l-7.276,14.342zm-33.504,-86.162c-3.3,0 -5.984,2.619 -5.984,5.837l0,59.147c0,3.218 2.685,5.836 5.984,5.836l26.813,0l6.689,13.134l6.665,-13.134l53.86,0c3.3,0 5.984,-2.618 5.984,-5.836l0,-59.147c0,-3.219 -2.685,-5.837 -5.984,-5.837l-94.027,0z" fill="#C9CACA"/>
  </g>
  <path id="svg_16" d="m107.898,184.101c0,2.138 -1.733,3.871 -3.871,3.871l-59.03,0c-2.138,0 -3.871,-1.733 -3.871,-3.871l0,-29.999c0,-2.138 1.733,-3.871 3.871,-3.871l59.031,0c2.138,0 3.871,1.733 3.871,3.871l0,29.999l-0.001,0z" fill="#3FA304"/>
  <g id="svg_17">
   <path id="svg_18" d="m695.625,254.492l-1.332,0.344c-0.344,-1.146 -1.117,-1.747 -2.32,-1.805c-1.69,0.115 -2.593,1.246 -2.707,3.395c0.086,2.148 0.974,3.294 2.664,3.438c1.375,-0.028 2.206,-0.773 2.492,-2.234l1.332,0.387c-0.43,1.948 -1.705,2.922 -3.824,2.922c-2.607,-0.144 -3.982,-1.633 -4.125,-4.469c0.143,-2.893 1.532,-4.426 4.168,-4.598c1.832,0.057 3.05,0.93 3.652,2.62z" fill="#595757"/>
   <path id="svg_19" d="m699.964,254.32c2.005,0.086 3.051,1.203 3.137,3.352c-0.058,2.12 -1.132,3.208 -3.223,3.266c-2.005,-0.115 -3.065,-1.188 -3.18,-3.223c0.087,-2.177 1.175,-3.309 3.266,-3.395zm-0.043,5.672c1.203,-0.028 1.819,-0.802 1.848,-2.32c-0.058,-1.461 -0.673,-2.234 -1.848,-2.32c-1.232,0.029 -1.862,0.802 -1.891,2.32c0.029,1.49 0.659,2.263 1.891,2.32z" fill="#595757"/>
   <path id="svg_20" d="m710.105,260.809l-1.289,0l0,-3.781c0,-1.146 -0.487,-1.704 -1.461,-1.676c-1.003,0.058 -1.576,0.645 -1.719,1.762l0,3.695l-1.289,0l0,-6.359l1.289,0l0,1.117c0.516,-0.802 1.246,-1.231 2.191,-1.289c1.547,-0.028 2.306,0.831 2.277,2.578l0,3.953l0.001,0z" fill="#595757"/>
   <path id="svg_21" d="m713.328,253.633l0,0.816l1.418,0l0,0.988l-1.418,0l0,5.328l-1.289,0l0,-5.328l-1.117,0l0,-0.988l1.117,0l0,-0.816c-0.058,-1.403 0.573,-2.077 1.891,-2.02c0.573,0 1.06,0.072 1.461,0.215l-0.387,0.945c-0.229,-0.114 -0.473,-0.172 -0.73,-0.172c-0.66,-0.028 -0.975,0.316 -0.946,1.032z" fill="#595757"/>
   <path id="svg_22" d="m720.289,258.832l1.375,0.215c-0.458,1.26 -1.504,1.891 -3.137,1.891c-2.12,-0.086 -3.223,-1.16 -3.309,-3.223c0.086,-2.206 1.146,-3.352 3.18,-3.438c2.12,0.029 3.194,1.175 3.223,3.438c0,0.144 0,0.258 0,0.344l-5.07,0c0.057,1.232 0.716,1.891 1.977,1.977c0.944,-0.029 1.531,-0.431 1.761,-1.204zm-3.739,-1.676l3.781,0c-0.058,-1.231 -0.673,-1.876 -1.848,-1.934c-1.202,0.058 -1.847,0.703 -1.933,1.934z" fill="#595757"/>
   <path id="svg_23" d="m724.07,257.5l0,3.266l-1.289,0l0,-6.316l1.289,0l0,1.203c0.315,-0.888 0.874,-1.346 1.676,-1.375c0.372,0 0.759,0.115 1.16,0.344l-0.473,1.16c-0.229,-0.2 -0.53,-0.301 -0.902,-0.301c-0.946,0.057 -1.433,0.73 -1.461,2.019z" fill="#595757"/>
   <path id="svg_24" d="m732.32,258.832l1.375,0.215c-0.458,1.26 -1.504,1.891 -3.137,1.891c-2.12,-0.086 -3.223,-1.16 -3.309,-3.223c0.086,-2.206 1.146,-3.352 3.18,-3.438c2.12,0.029 3.194,1.175 3.223,3.438c0,0.144 0,0.258 0,0.344l-5.07,0c0.057,1.232 0.716,1.891 1.977,1.977c0.944,-0.029 1.531,-0.431 1.761,-1.204zm-3.738,-1.676l3.781,0c-0.058,-1.231 -0.673,-1.876 -1.848,-1.934c-1.203,0.058 -1.848,0.703 -1.933,1.934z" fill="#595757"/>
   <path id="svg_25" d="m740.699,260.809l-1.289,0l0,-3.781c0,-1.146 -0.487,-1.704 -1.461,-1.676c-1.003,0.058 -1.576,0.645 -1.719,1.762l0,3.695l-1.289,0l0,-6.359l1.289,0l0,1.117c0.516,-0.802 1.246,-1.231 2.191,-1.289c1.547,-0.028 2.306,0.831 2.277,2.578l0,3.953l0.001,0z" fill="#595757"/>
   <path id="svg_26" d="m748.175,256.297l-1.332,0.258c-0.287,-0.745 -0.816,-1.146 -1.59,-1.203c-1.232,0.058 -1.862,0.831 -1.891,2.32c0.028,1.49 0.659,2.249 1.891,2.277c0.945,-0.028 1.489,-0.516 1.633,-1.461l1.375,0.172c-0.373,1.576 -1.39,2.334 -3.051,2.277c-2.091,-0.058 -3.166,-1.146 -3.223,-3.266c0.057,-2.206 1.131,-3.337 3.223,-3.395c1.49,0.059 2.478,0.732 2.965,2.021z" fill="#595757"/>
   <path id="svg_27" d="m753.976,258.832l1.375,0.215c-0.458,1.26 -1.504,1.891 -3.137,1.891c-2.12,-0.086 -3.223,-1.16 -3.309,-3.223c0.086,-2.206 1.146,-3.352 3.18,-3.438c2.12,0.029 3.194,1.175 3.223,3.438c0,0.144 0,0.258 0,0.344l-5.07,0c0.057,1.232 0.716,1.891 1.977,1.977c0.945,-0.029 1.532,-0.431 1.761,-1.204zm-3.738,-1.676l3.781,0c-0.058,-1.231 -0.673,-1.876 -1.848,-1.934c-1.203,0.058 -1.847,0.703 -1.933,1.934z" fill="#595757"/>
   <path id="svg_28" d="m763.988,251.699l1.332,0l0,9.066l-1.332,0l0,-0.988c-0.373,0.773 -1.089,1.16 -2.148,1.16c-1.69,-0.115 -2.564,-1.174 -2.621,-3.18c0.028,-2.292 0.959,-3.452 2.793,-3.48c0.974,0.058 1.633,0.473 1.977,1.246l0,-3.824l-0.001,0zm0.043,6.102l0,-0.645c-0.115,-1.088 -0.688,-1.704 -1.719,-1.848c-1.146,0.058 -1.733,0.845 -1.762,2.363c0.028,1.519 0.616,2.292 1.762,2.32c1.117,-0.027 1.69,-0.758 1.719,-2.19z" fill="#595757"/>
   <path id="svg_29" d="m773.011,260.766l-1.246,0c-0.172,-0.229 -0.287,-0.587 -0.344,-1.074c-0.516,0.802 -1.433,1.217 -2.75,1.246c-1.318,-0.058 -2.005,-0.645 -2.062,-1.762c0,-1.146 0.788,-1.819 2.363,-2.02c1.375,-0.2 2.177,-0.43 2.406,-0.688c0.057,-0.888 -0.458,-1.303 -1.547,-1.246c-1.003,0 -1.59,0.387 -1.762,1.16l-1.246,-0.215c0.315,-1.289 1.317,-1.919 3.008,-1.891c1.977,-0.057 2.922,0.788 2.836,2.535c0,0.773 0,1.647 0,2.621c0,0.517 0.115,0.961 0.344,1.334zm-1.547,-2.664l0,-0.816c-0.344,0.315 -0.974,0.53 -1.891,0.645c-1.146,0.144 -1.705,0.544 -1.676,1.203c-0.029,0.63 0.415,0.931 1.332,0.902c1.376,-0.087 2.121,-0.731 2.235,-1.934z" fill="#595757"/>
   <path id="svg_30" d="m775.847,252.086l0,2.363l1.418,0l0,0.988l-1.418,0l0,3.609c-0.029,0.659 0.229,0.974 0.773,0.945c0.229,0 0.43,-0.043 0.602,-0.129l0.215,0.73c-0.287,0.229 -0.702,0.344 -1.246,0.344c-1.117,0.028 -1.662,-0.53 -1.633,-1.676l0,-3.824l-1.031,0l0,-0.988l1.031,0l0,-2.02l1.289,-0.342z" fill="#595757"/>
   <path id="svg_31" d="m783.023,258.832l1.375,0.215c-0.458,1.26 -1.504,1.891 -3.137,1.891c-2.12,-0.086 -3.223,-1.16 -3.309,-3.223c0.086,-2.206 1.146,-3.352 3.18,-3.438c2.12,0.029 3.194,1.175 3.223,3.438c0,0.144 0,0.258 0,0.344l-5.07,0c0.057,1.232 0.716,1.891 1.977,1.977c0.945,-0.029 1.531,-0.431 1.761,-1.204zm-3.738,-1.676l3.781,0c-0.058,-1.231 -0.673,-1.876 -1.848,-1.934c-1.203,0.058 -1.847,0.703 -1.933,1.934z" fill="#595757"/>
  </g>
  <g id="svg_32">
   <path id="svg_33" d="m196.125,253.815l-3.996,0l0,-8.809l3.781,0c1.862,0.058 2.85,0.759 2.965,2.105c-0.029,1.117 -0.63,1.805 -1.805,2.062l0,0.043c1.346,0.229 2.077,0.931 2.191,2.105c0.001,1.663 -1.045,2.494 -3.136,2.494zm-0.472,-7.777l-2.191,0l0,2.707l2.191,0c1.174,-0.028 1.776,-0.501 1.805,-1.418c-0.029,-0.86 -0.631,-1.289 -1.805,-1.289zm0.172,3.781l-2.363,0l0,3.008l2.449,0c1.26,0 1.891,-0.53 1.891,-1.59c-0.058,-0.917 -0.717,-1.389 -1.977,-1.418z" fill="#595757"/>
   <path id="svg_34" d="m205.407,251.838l1.375,0.215c-0.458,1.26 -1.504,1.891 -3.137,1.891c-2.12,-0.086 -3.223,-1.16 -3.309,-3.223c0.086,-2.206 1.146,-3.352 3.18,-3.438c2.12,0.029 3.194,1.175 3.223,3.438c0,0.144 0,0.258 0,0.344l-5.07,0c0.057,1.232 0.716,1.891 1.977,1.977c0.944,-0.029 1.531,-0.43 1.761,-1.204zm-3.739,-1.675l3.781,0c-0.058,-1.231 -0.673,-1.876 -1.848,-1.934c-1.202,0.058 -1.847,0.702 -1.933,1.934z" fill="#595757"/>
   <path id="svg_35" d="m212.454,247.456l1.289,0l0,5.457c0.114,2.292 -0.96,3.38 -3.223,3.266c-1.519,-0.029 -2.421,-0.602 -2.707,-1.719l1.246,-0.086c0.286,0.516 0.816,0.788 1.59,0.816c1.203,0 1.805,-0.63 1.805,-1.891l0,-0.816c-0.373,0.716 -1.103,1.074 -2.191,1.074c-1.748,-0.058 -2.636,-1.088 -2.664,-3.094c0.057,-2.062 0.988,-3.122 2.793,-3.18c0.974,0.029 1.661,0.387 2.062,1.074l0,-0.901zm0,3.179l0,-0.559c-0.058,-1.117 -0.616,-1.704 -1.676,-1.762c-1.203,0.029 -1.819,0.745 -1.848,2.148c0.028,1.433 0.616,2.163 1.762,2.191c1.145,-0.027 1.733,-0.7 1.762,-2.018z" fill="#595757"/>
   <path id="svg_36" d="m215.29,246.252l0,-1.332l1.332,0l0,1.332l-1.332,0zm0,7.52l0,-6.316l1.332,0l0,6.316l-1.332,0z" fill="#595757"/>
   <path id="svg_37" d="m223.969,253.815l-1.289,0l0,-3.781c0,-1.146 -0.487,-1.704 -1.461,-1.676c-1.003,0.058 -1.576,0.645 -1.719,1.762l0,3.695l-1.289,0l0,-6.359l1.289,0l0,1.117c0.516,-0.802 1.246,-1.231 2.191,-1.289c1.547,-0.028 2.306,0.831 2.277,2.578l0,3.953l0.001,0z" fill="#595757"/>
   <path id="svg_38" d="m231.36,253.815l-1.289,0l0,-3.781c0,-1.146 -0.487,-1.704 -1.461,-1.676c-1.003,0.058 -1.576,0.645 -1.719,1.762l0,3.695l-1.289,0l0,-6.359l1.289,0l0,1.117c0.516,-0.802 1.246,-1.231 2.191,-1.289c1.547,-0.028 2.306,0.831 2.277,2.578l0,3.953l0.001,0z" fill="#595757"/>
   <path id="svg_39" d="m232.95,246.252l0,-1.332l1.332,0l0,1.332l-1.332,0zm0,7.52l0,-6.316l1.332,0l0,6.316l-1.332,0z" fill="#595757"/>
   <path id="svg_40" d="m241.629,253.815l-1.289,0l0,-3.781c0,-1.146 -0.487,-1.704 -1.461,-1.676c-1.003,0.058 -1.576,0.645 -1.719,1.762l0,3.695l-1.289,0l0,-6.359l1.289,0l0,1.117c0.516,-0.802 1.246,-1.231 2.191,-1.289c1.547,-0.028 2.306,0.831 2.277,2.578l0,3.953l0.001,0z" fill="#595757"/>
   <path id="svg_41" d="m247.688,247.456l1.289,0l0,5.457c0.114,2.292 -0.96,3.38 -3.223,3.266c-1.519,-0.029 -2.421,-0.602 -2.707,-1.719l1.246,-0.086c0.286,0.516 0.816,0.788 1.59,0.816c1.203,0 1.805,-0.63 1.805,-1.891l0,-0.816c-0.373,0.716 -1.103,1.074 -2.191,1.074c-1.748,-0.058 -2.636,-1.088 -2.664,-3.094c0.057,-2.062 0.988,-3.122 2.793,-3.18c0.974,0.029 1.661,0.387 2.062,1.074l0,-0.901zm0,3.179l0,-0.559c-0.058,-1.117 -0.616,-1.704 -1.676,-1.762c-1.203,0.029 -1.819,0.745 -1.848,2.148c0.028,1.433 0.616,2.163 1.762,2.191c1.146,-0.027 1.733,-0.7 1.762,-2.018z" fill="#595757"/>
   <path id="svg_42" d="m256.497,247.327c2.005,0.086 3.051,1.203 3.137,3.352c-0.058,2.12 -1.132,3.208 -3.223,3.266c-2.005,-0.115 -3.065,-1.188 -3.18,-3.223c0.086,-2.178 1.174,-3.309 3.266,-3.395zm-0.043,5.672c1.203,-0.028 1.819,-0.802 1.848,-2.32c-0.058,-1.461 -0.673,-2.234 -1.848,-2.32c-1.232,0.029 -1.862,0.802 -1.891,2.32c0.028,1.489 0.659,2.262 1.891,2.32z" fill="#595757"/>
   <path id="svg_43" d="m262.469,246.639l0,0.816l1.418,0l0,0.988l-1.418,0l0,5.328l-1.289,0l0,-5.328l-1.117,0l0,-0.988l1.117,0l0,-0.816c-0.058,-1.403 0.573,-2.077 1.891,-2.02c0.573,0 1.06,0.072 1.461,0.215l-0.387,0.945c-0.229,-0.114 -0.473,-0.172 -0.73,-0.172c-0.66,-0.027 -0.975,0.316 -0.946,1.032z" fill="#595757"/>
   <path id="svg_44" d="m198.059,267.772l-1.246,0c-0.172,-0.229 -0.287,-0.587 -0.344,-1.074c-0.516,0.802 -1.433,1.217 -2.75,1.246c-1.318,-0.058 -2.005,-0.645 -2.062,-1.762c0,-1.146 0.788,-1.819 2.363,-2.02c1.375,-0.2 2.177,-0.43 2.406,-0.688c0.057,-0.888 -0.458,-1.303 -1.547,-1.246c-1.003,0 -1.59,0.387 -1.762,1.16l-1.246,-0.215c0.315,-1.289 1.317,-1.919 3.008,-1.891c1.977,-0.057 2.922,0.788 2.836,2.535c0,0.773 0,1.647 0,2.621c0,0.518 0.115,0.961 0.344,1.334zm-1.547,-2.664l0,-0.816c-0.344,0.315 -0.974,0.53 -1.891,0.645c-1.146,0.144 -1.705,0.544 -1.676,1.203c-0.029,0.63 0.415,0.931 1.332,0.902c1.376,-0.086 2.12,-0.731 2.235,-1.934z" fill="#595757"/>
   <path id="svg_45" d="m200.551,266.784l0,0.988l-1.332,0l0,-9.066l1.332,0l0,3.824c0.458,-0.831 1.174,-1.246 2.148,-1.246c1.661,0.086 2.521,1.189 2.578,3.309c-0.029,2.206 -0.902,3.323 -2.621,3.352c-0.973,-0.001 -1.675,-0.388 -2.105,-1.161zm-0.043,-2.578l0,0.773c0.057,1.289 0.63,1.962 1.719,2.02c1.174,0 1.762,-0.802 1.762,-2.406c-0.058,-1.461 -0.645,-2.22 -1.762,-2.277c-1.06,0.142 -1.633,0.772 -1.719,1.89z" fill="#595757"/>
   <path id="svg_46" d="m211.723,263.002l-1.289,0.172c-0.172,-0.63 -0.645,-0.945 -1.418,-0.945c-0.831,0 -1.246,0.301 -1.246,0.902c-0.058,0.43 0.415,0.73 1.418,0.902c0.315,0.086 0.645,0.172 0.988,0.258c1.26,0.287 1.862,0.888 1.805,1.805c-0.029,1.203 -0.931,1.819 -2.707,1.848c-1.805,0.086 -2.836,-0.544 -3.094,-1.891l1.289,-0.215c0.2,0.831 0.773,1.232 1.719,1.203c0.945,0 1.432,-0.329 1.461,-0.988c0.057,-0.43 -0.373,-0.745 -1.289,-0.945c-0.086,0 -0.229,-0.028 -0.43,-0.086c-0.258,-0.057 -0.444,-0.1 -0.559,-0.129c-1.347,-0.315 -2.005,-0.888 -1.977,-1.719c0.086,-1.203 0.931,-1.833 2.535,-1.891c1.548,-0.028 2.479,0.545 2.794,1.719z" fill="#595757"/>
   <path id="svg_47" d="m214.946,259.092l0,2.363l1.418,0l0,0.988l-1.418,0l0,3.609c-0.029,0.659 0.229,0.974 0.773,0.945c0.229,0 0.43,-0.043 0.602,-0.129l0.215,0.73c-0.287,0.229 -0.702,0.344 -1.246,0.344c-1.117,0.028 -1.662,-0.53 -1.633,-1.676l0,-3.824l-1.031,0l0,-0.988l1.031,0l0,-2.02l1.289,-0.342z" fill="#595757"/>
   <path id="svg_48" d="m218.598,264.506l0,3.266l-1.289,0l0,-6.316l1.289,0l0,1.203c0.315,-0.888 0.874,-1.346 1.676,-1.375c0.372,0 0.759,0.115 1.16,0.344l-0.473,1.16c-0.229,-0.2 -0.53,-0.301 -0.902,-0.301c-0.945,0.057 -1.433,0.73 -1.461,2.019z" fill="#595757"/>
   <path id="svg_49" d="m228.223,267.772l-1.246,0c-0.172,-0.229 -0.287,-0.587 -0.344,-1.074c-0.516,0.802 -1.433,1.217 -2.75,1.246c-1.318,-0.058 -2.005,-0.645 -2.062,-1.762c0,-1.146 0.788,-1.819 2.363,-2.02c1.375,-0.2 2.177,-0.43 2.406,-0.688c0.057,-0.888 -0.458,-1.303 -1.547,-1.246c-1.003,0 -1.59,0.387 -1.762,1.16l-1.246,-0.215c0.315,-1.289 1.317,-1.919 3.008,-1.891c1.977,-0.057 2.922,0.788 2.836,2.535c0,0.773 0,1.647 0,2.621c0,0.518 0.115,0.961 0.344,1.334zm-1.547,-2.664l0,-0.816c-0.344,0.315 -0.974,0.53 -1.891,0.645c-1.146,0.144 -1.705,0.544 -1.676,1.203c-0.029,0.63 0.415,0.931 1.332,0.902c1.376,-0.086 2.121,-0.731 2.235,-1.934z" fill="#595757"/>
   <path id="svg_50" d="m235.27,263.303l-1.332,0.258c-0.287,-0.745 -0.816,-1.146 -1.59,-1.203c-1.232,0.058 -1.862,0.831 -1.891,2.32c0.028,1.49 0.659,2.249 1.891,2.277c0.945,-0.028 1.489,-0.516 1.633,-1.461l1.375,0.172c-0.373,1.576 -1.39,2.334 -3.051,2.277c-2.091,-0.058 -3.166,-1.146 -3.223,-3.266c0.057,-2.206 1.131,-3.337 3.223,-3.395c1.489,0.059 2.478,0.732 2.965,2.021z" fill="#595757"/>
   <path id="svg_51" d="m238.02,259.092l0,2.363l1.418,0l0,0.988l-1.418,0l0,3.609c-0.029,0.659 0.229,0.974 0.773,0.945c0.229,0 0.43,-0.043 0.602,-0.129l0.215,0.73c-0.287,0.229 -0.702,0.344 -1.246,0.344c-1.117,0.028 -1.662,-0.53 -1.633,-1.676l0,-3.824l-1.031,0l0,-0.988l1.031,0l0,-2.02l1.289,-0.342z" fill="#595757"/>
  </g>
  <g id="svg_52">
   <path id="svg_53" d="m313.433,113.726l-2.965,0l0,-8.809l2.922,0c2.95,0.058 4.454,1.519 4.512,4.383c0.056,3.008 -1.433,4.483 -4.469,4.426zm-0.086,-7.692l-1.547,0l0,6.66l1.547,0c2.091,0 3.137,-1.131 3.137,-3.395c-0.058,-2.119 -1.104,-3.207 -3.137,-3.265z" fill="#595757"/>
   <path id="svg_54" d="m324.046,111.749l1.375,0.215c-0.458,1.26 -1.504,1.891 -3.137,1.891c-2.12,-0.086 -3.223,-1.16 -3.309,-3.223c0.086,-2.206 1.146,-3.352 3.18,-3.438c2.12,0.029 3.194,1.175 3.223,3.438c0,0.144 0,0.258 0,0.344l-5.07,0c0.057,1.232 0.716,1.891 1.977,1.977c0.944,-0.029 1.531,-0.431 1.761,-1.204zm-3.738,-1.676l3.781,0c-0.058,-1.231 -0.673,-1.876 -1.848,-1.934c-1.203,0.058 -1.847,0.703 -1.933,1.934z" fill="#595757"/>
   <path id="svg_55" d="m332.726,113.683l-1.246,0c-0.172,-0.229 -0.287,-0.587 -0.344,-1.074c-0.516,0.802 -1.433,1.217 -2.75,1.246c-1.318,-0.058 -2.005,-0.645 -2.062,-1.762c0,-1.146 0.788,-1.819 2.363,-2.02c1.375,-0.2 2.177,-0.43 2.406,-0.688c0.057,-0.888 -0.458,-1.303 -1.547,-1.246c-1.003,0 -1.59,0.387 -1.762,1.16l-1.246,-0.215c0.315,-1.289 1.317,-1.919 3.008,-1.891c1.977,-0.057 2.922,0.788 2.836,2.535c0,0.773 0,1.647 0,2.621c0,0.517 0.114,0.961 0.344,1.334zm-1.547,-2.664l0,-0.816c-0.344,0.315 -0.974,0.53 -1.891,0.645c-1.146,0.144 -1.705,0.544 -1.676,1.203c-0.029,0.63 0.415,0.931 1.332,0.902c1.375,-0.087 2.12,-0.731 2.235,-1.934z" fill="#595757"/>
   <path id="svg_56" d="m338.269,104.616l1.332,0l0,9.066l-1.332,0l0,-0.988c-0.373,0.773 -1.089,1.16 -2.148,1.16c-1.69,-0.115 -2.564,-1.174 -2.621,-3.18c0.028,-2.292 0.959,-3.452 2.793,-3.48c0.974,0.058 1.633,0.473 1.977,1.246l0,-3.824l-0.001,0zm0.043,6.102l0,-0.645c-0.115,-1.088 -0.688,-1.704 -1.719,-1.848c-1.146,0.058 -1.733,0.845 -1.762,2.363c0.028,1.519 0.616,2.292 1.762,2.32c1.117,-0.027 1.69,-0.758 1.719,-2.19z" fill="#595757"/>
   <path id="svg_57" d="m341.19,113.683l0,-9.066l1.332,0l0,9.066l-1.332,0z" fill="#595757"/>
   <path id="svg_58" d="m344.069,106.163l0,-1.332l1.332,0l0,1.332l-1.332,0zm0,7.52l0,-6.316l1.332,0l0,6.316l-1.332,0z" fill="#595757"/>
   <path id="svg_59" d="m352.749,113.726l-1.289,0l0,-3.781c0,-1.146 -0.487,-1.704 -1.461,-1.676c-1.003,0.058 -1.576,0.645 -1.719,1.762l0,3.695l-1.289,0l0,-6.359l1.289,0l0,1.117c0.516,-0.802 1.246,-1.231 2.191,-1.289c1.547,-0.028 2.306,0.831 2.277,2.578l0,3.953l0.001,0z" fill="#595757"/>
   <path id="svg_60" d="m359.065,111.749l1.375,0.215c-0.458,1.26 -1.504,1.891 -3.137,1.891c-2.12,-0.086 -3.223,-1.16 -3.309,-3.223c0.086,-2.206 1.146,-3.352 3.18,-3.438c2.12,0.029 3.194,1.175 3.223,3.438c0,0.144 0,0.258 0,0.344l-5.07,0c0.057,1.232 0.716,1.891 1.977,1.977c0.945,-0.029 1.532,-0.431 1.761,-1.204zm-3.738,-1.676l3.781,0c-0.058,-1.231 -0.673,-1.876 -1.848,-1.934c-1.202,0.058 -1.847,0.703 -1.933,1.934z" fill="#595757"/>
   <path id="svg_61" d="m367.616,107.237c2.005,0.086 3.051,1.203 3.137,3.352c-0.058,2.12 -1.132,3.208 -3.223,3.266c-2.005,-0.115 -3.065,-1.188 -3.18,-3.223c0.087,-2.177 1.175,-3.309 3.266,-3.395zm-0.043,5.672c1.203,-0.028 1.819,-0.802 1.848,-2.32c-0.058,-1.461 -0.673,-2.234 -1.848,-2.32c-1.232,0.029 -1.862,0.802 -1.891,2.32c0.029,1.49 0.659,2.263 1.891,2.32z" fill="#595757"/>
   <path id="svg_62" d="m373.589,106.55l0,0.816l1.418,0l0,0.988l-1.418,0l0,5.328l-1.289,0l0,-5.328l-1.117,0l0,-0.988l1.117,0l0,-0.816c-0.058,-1.403 0.573,-2.077 1.891,-2.02c0.573,0 1.06,0.072 1.461,0.215l-0.387,0.945c-0.229,-0.114 -0.473,-0.172 -0.73,-0.172c-0.66,-0.028 -0.975,0.316 -0.946,1.032z" fill="#595757"/>
   <path id="svg_63" d="m316.397,127.683l-1.246,0c-0.172,-0.229 -0.287,-0.587 -0.344,-1.074c-0.516,0.802 -1.433,1.217 -2.75,1.246c-1.318,-0.058 -2.005,-0.645 -2.062,-1.762c0,-1.146 0.788,-1.819 2.363,-2.02c1.375,-0.2 2.177,-0.43 2.406,-0.688c0.057,-0.888 -0.458,-1.303 -1.547,-1.246c-1.003,0 -1.59,0.387 -1.762,1.16l-1.246,-0.215c0.315,-1.289 1.317,-1.919 3.008,-1.891c1.977,-0.057 2.922,0.788 2.836,2.535c0,0.773 0,1.647 0,2.621c0.001,0.517 0.115,0.961 0.344,1.334zm-1.546,-2.664l0,-0.816c-0.344,0.315 -0.974,0.53 -1.891,0.645c-1.146,0.144 -1.705,0.544 -1.676,1.203c-0.029,0.63 0.415,0.931 1.332,0.902c1.375,-0.087 2.12,-0.731 2.235,-1.934z" fill="#595757"/>
   <path id="svg_64" d="m318.89,126.694l0,0.988l-1.332,0l0,-9.066l1.332,0l0,3.824c0.458,-0.831 1.174,-1.246 2.148,-1.246c1.661,0.086 2.521,1.189 2.578,3.309c-0.029,2.206 -0.902,3.323 -2.621,3.352c-0.974,-0.001 -1.676,-0.387 -2.105,-1.161zm-0.043,-2.578l0,0.773c0.057,1.289 0.63,1.962 1.719,2.02c1.174,0 1.762,-0.802 1.762,-2.406c-0.058,-1.461 -0.645,-2.22 -1.762,-2.277c-1.061,0.143 -1.633,0.773 -1.719,1.89z" fill="#595757"/>
   <path id="svg_65" d="m330.062,122.913l-1.289,0.172c-0.172,-0.63 -0.645,-0.945 -1.418,-0.945c-0.831,0 -1.246,0.301 -1.246,0.902c-0.058,0.43 0.415,0.73 1.418,0.902c0.315,0.086 0.645,0.172 0.988,0.258c1.26,0.287 1.862,0.888 1.805,1.805c-0.029,1.203 -0.931,1.819 -2.707,1.848c-1.805,0.086 -2.836,-0.544 -3.094,-1.891l1.289,-0.215c0.2,0.831 0.773,1.232 1.719,1.203c0.945,0 1.432,-0.329 1.461,-0.988c0.057,-0.43 -0.373,-0.745 -1.289,-0.945c-0.086,0 -0.229,-0.028 -0.43,-0.086c-0.258,-0.057 -0.444,-0.1 -0.559,-0.129c-1.347,-0.315 -2.005,-0.888 -1.977,-1.719c0.086,-1.203 0.931,-1.833 2.535,-1.891c1.547,-0.028 2.478,0.545 2.794,1.719z" fill="#595757"/>
   <path id="svg_66" d="m333.284,119.003l0,2.363l1.418,0l0,0.988l-1.418,0l0,3.609c-0.029,0.659 0.229,0.974 0.773,0.945c0.229,0 0.43,-0.043 0.602,-0.129l0.215,0.73c-0.287,0.229 -0.702,0.344 -1.246,0.344c-1.117,0.028 -1.662,-0.53 -1.633,-1.676l0,-3.824l-1.031,0l0,-0.988l1.031,0l0,-2.02l1.289,-0.342z" fill="#595757"/>
   <path id="svg_67" d="m336.937,124.417l0,3.266l-1.289,0l0,-6.316l1.289,0l0,1.203c0.315,-0.888 0.874,-1.346 1.676,-1.375c0.372,0 0.759,0.115 1.16,0.344l-0.473,1.16c-0.229,-0.2 -0.53,-0.301 -0.902,-0.301c-0.946,0.057 -1.433,0.73 -1.461,2.019z" fill="#595757"/>
   <path id="svg_68" d="m346.562,127.683l-1.246,0c-0.172,-0.229 -0.287,-0.587 -0.344,-1.074c-0.516,0.802 -1.433,1.217 -2.75,1.246c-1.318,-0.058 -2.005,-0.645 -2.062,-1.762c0,-1.146 0.788,-1.819 2.363,-2.02c1.375,-0.2 2.177,-0.43 2.406,-0.688c0.057,-0.888 -0.458,-1.303 -1.547,-1.246c-1.003,0 -1.59,0.387 -1.762,1.16l-1.246,-0.215c0.315,-1.289 1.317,-1.919 3.008,-1.891c1.977,-0.057 2.922,0.788 2.836,2.535c0,0.773 0,1.647 0,2.621c0,0.517 0.114,0.961 0.344,1.334zm-1.547,-2.664l0,-0.816c-0.344,0.315 -0.974,0.53 -1.891,0.645c-1.146,0.144 -1.705,0.544 -1.676,1.203c-0.029,0.63 0.415,0.931 1.332,0.902c1.375,-0.087 2.12,-0.731 2.235,-1.934z" fill="#595757"/>
   <path id="svg_69" d="m353.608,123.214l-1.332,0.258c-0.287,-0.745 -0.816,-1.146 -1.59,-1.203c-1.232,0.058 -1.862,0.831 -1.891,2.32c0.028,1.49 0.659,2.249 1.891,2.277c0.945,-0.028 1.489,-0.516 1.633,-1.461l1.375,0.172c-0.373,1.576 -1.39,2.334 -3.051,2.277c-2.091,-0.058 -3.166,-1.146 -3.223,-3.266c0.057,-2.206 1.131,-3.337 3.223,-3.395c1.49,0.059 2.478,0.732 2.965,2.021z" fill="#595757"/>
   <path id="svg_70" d="m356.358,119.003l0,2.363l1.418,0l0,0.988l-1.418,0l0,3.609c-0.029,0.659 0.229,0.974 0.773,0.945c0.229,0 0.43,-0.043 0.602,-0.129l0.215,0.73c-0.287,0.229 -0.702,0.344 -1.246,0.344c-1.117,0.028 -1.662,-0.53 -1.633,-1.676l0,-3.824l-1.031,0l0,-0.988l1.031,0l0,-2.02l1.289,-0.342z" fill="#595757"/>
  </g>
  <g id="svg_71">
   <path id="svg_72" d="m566.849,125.733l-2.965,0l0,-8.809l2.922,0c2.95,0.058 4.454,1.519 4.512,4.383c0.057,3.008 -1.433,4.483 -4.469,4.426zm-0.086,-7.691l-1.547,0l0,6.66l1.547,0c2.091,0 3.137,-1.131 3.137,-3.395c-0.058,-2.119 -1.104,-3.208 -3.137,-3.265z" fill="#595757"/>
   <path id="svg_73" d="m577.462,123.756l1.375,0.215c-0.458,1.26 -1.504,1.891 -3.137,1.891c-2.12,-0.086 -3.223,-1.16 -3.309,-3.223c0.086,-2.206 1.146,-3.352 3.18,-3.438c2.12,0.029 3.194,1.175 3.223,3.438c0,0.144 0,0.258 0,0.344l-5.07,0c0.057,1.232 0.716,1.891 1.977,1.977c0.945,-0.029 1.531,-0.43 1.761,-1.204zm-3.738,-1.675l3.781,0c-0.058,-1.231 -0.673,-1.876 -1.848,-1.934c-1.203,0.058 -1.847,0.702 -1.933,1.934z" fill="#595757"/>
   <path id="svg_74" d="m586.142,125.69l-1.246,0c-0.172,-0.229 -0.287,-0.587 -0.344,-1.074c-0.516,0.802 -1.433,1.217 -2.75,1.246c-1.318,-0.058 -2.005,-0.645 -2.062,-1.762c0,-1.146 0.788,-1.819 2.363,-2.02c1.375,-0.2 2.177,-0.43 2.406,-0.688c0.057,-0.888 -0.458,-1.303 -1.547,-1.246c-1.003,0 -1.59,0.387 -1.762,1.16l-1.246,-0.215c0.315,-1.289 1.317,-1.919 3.008,-1.891c1.977,-0.057 2.922,0.788 2.836,2.535c0,0.773 0,1.647 0,2.621c0,0.518 0.114,0.961 0.344,1.334zm-1.547,-2.664l0,-0.816c-0.344,0.315 -0.974,0.53 -1.891,0.645c-1.146,0.144 -1.705,0.544 -1.676,1.203c-0.029,0.63 0.415,0.931 1.332,0.902c1.375,-0.086 2.12,-0.731 2.235,-1.934z" fill="#595757"/>
   <path id="svg_75" d="m591.685,116.624l1.332,0l0,9.066l-1.332,0l0,-0.988c-0.373,0.773 -1.089,1.16 -2.148,1.16c-1.69,-0.115 -2.564,-1.174 -2.621,-3.18c0.028,-2.292 0.959,-3.452 2.793,-3.48c0.974,0.058 1.633,0.473 1.977,1.246l0,-3.824l-0.001,0zm0.043,6.101l0,-0.645c-0.115,-1.088 -0.688,-1.704 -1.719,-1.848c-1.146,0.058 -1.733,0.845 -1.762,2.363c0.028,1.519 0.616,2.292 1.762,2.32c1.117,-0.027 1.69,-0.757 1.719,-2.19z" fill="#595757"/>
   <path id="svg_76" d="m594.606,125.69l0,-9.066l1.332,0l0,9.066l-1.332,0z" fill="#595757"/>
   <path id="svg_77" d="m597.485,118.17l0,-1.332l1.332,0l0,1.332l-1.332,0zm0,7.52l0,-6.316l1.332,0l0,6.316l-1.332,0z" fill="#595757"/>
   <path id="svg_78" d="m606.165,125.733l-1.289,0l0,-3.781c0,-1.146 -0.487,-1.704 -1.461,-1.676c-1.003,0.058 -1.576,0.645 -1.719,1.762l0,3.695l-1.289,0l0,-6.359l1.289,0l0,1.117c0.516,-0.802 1.246,-1.231 2.191,-1.289c1.547,-0.028 2.306,0.831 2.277,2.578l0,3.953l0.001,0z" fill="#595757"/>
   <path id="svg_79" d="m612.481,123.756l1.375,0.215c-0.458,1.26 -1.504,1.891 -3.137,1.891c-2.12,-0.086 -3.223,-1.16 -3.309,-3.223c0.086,-2.206 1.146,-3.352 3.18,-3.438c2.12,0.029 3.194,1.175 3.223,3.438c0,0.144 0,0.258 0,0.344l-5.07,0c0.057,1.232 0.716,1.891 1.977,1.977c0.945,-0.029 1.532,-0.43 1.761,-1.204zm-3.738,-1.675l3.781,0c-0.058,-1.231 -0.673,-1.876 -1.848,-1.934c-1.202,0.058 -1.847,0.702 -1.933,1.934z" fill="#595757"/>
   <path id="svg_80" d="m621.032,119.245c2.005,0.086 3.051,1.203 3.137,3.352c-0.058,2.12 -1.132,3.208 -3.223,3.266c-2.005,-0.115 -3.065,-1.188 -3.18,-3.223c0.087,-2.178 1.175,-3.309 3.266,-3.395zm-0.043,5.672c1.203,-0.028 1.819,-0.802 1.848,-2.32c-0.058,-1.461 -0.673,-2.234 -1.848,-2.32c-1.232,0.029 -1.862,0.802 -1.891,2.32c0.029,1.489 0.659,2.262 1.891,2.32z" fill="#595757"/>
   <path id="svg_81" d="m627.005,118.557l0,0.816l1.418,0l0,0.988l-1.418,0l0,5.328l-1.289,0l0,-5.328l-1.117,0l0,-0.988l1.117,0l0,-0.816c-0.058,-1.403 0.573,-2.077 1.891,-2.02c0.573,0 1.06,0.072 1.461,0.215l-0.387,0.945c-0.229,-0.114 -0.473,-0.172 -0.73,-0.172c-0.66,-0.027 -0.975,0.316 -0.946,1.032z" fill="#595757"/>
   <path id="svg_82" d="m633.622,124.831l0,3.223l-1.332,0l0,-8.68l1.332,0l0,1.074c0.372,-0.802 1.088,-1.203 2.148,-1.203c1.633,0.086 2.492,1.175 2.578,3.266c-0.029,2.206 -0.902,3.323 -2.621,3.352c-0.974,-0.03 -1.675,-0.374 -2.105,-1.032zm-0.043,-2.664l0,0.73c0.028,1.289 0.602,1.962 1.719,2.02c1.146,0 1.719,-0.788 1.719,-2.363c-0.029,-1.489 -0.616,-2.249 -1.762,-2.277c-1.06,0.056 -1.619,0.686 -1.676,1.89z" fill="#595757"/>
   <path id="svg_83" d="m645.739,125.69l-1.246,0c-0.172,-0.229 -0.287,-0.587 -0.344,-1.074c-0.516,0.802 -1.433,1.217 -2.75,1.246c-1.318,-0.058 -2.005,-0.645 -2.062,-1.762c0,-1.146 0.788,-1.819 2.363,-2.02c1.375,-0.2 2.177,-0.43 2.406,-0.688c0.057,-0.888 -0.458,-1.303 -1.547,-1.246c-1.003,0 -1.59,0.387 -1.762,1.16l-1.246,-0.215c0.315,-1.289 1.317,-1.919 3.008,-1.891c1.977,-0.057 2.922,0.788 2.836,2.535c0,0.773 0,1.647 0,2.621c0.001,0.518 0.115,0.961 0.344,1.334zm-1.547,-2.664l0,-0.816c-0.344,0.315 -0.974,0.53 -1.891,0.645c-1.146,0.144 -1.705,0.544 -1.676,1.203c-0.029,0.63 0.415,0.931 1.332,0.902c1.376,-0.086 2.121,-0.731 2.235,-1.934z" fill="#595757"/>
   <path id="svg_84" d="m648.231,124.831l0,3.223l-1.332,0l0,-8.68l1.332,0l0,1.074c0.372,-0.802 1.088,-1.203 2.148,-1.203c1.633,0.086 2.492,1.175 2.578,3.266c-0.029,2.206 -0.902,3.323 -2.621,3.352c-0.973,-0.03 -1.675,-0.374 -2.105,-1.032zm-0.043,-2.664l0,0.73c0.028,1.289 0.602,1.962 1.719,2.02c1.146,0 1.719,-0.788 1.719,-2.363c-0.029,-1.489 -0.616,-2.249 -1.762,-2.277c-1.06,0.056 -1.618,0.686 -1.676,1.89z" fill="#595757"/>
   <path id="svg_85" d="m658.974,123.756l1.375,0.215c-0.458,1.26 -1.504,1.891 -3.137,1.891c-2.12,-0.086 -3.223,-1.16 -3.309,-3.223c0.086,-2.206 1.146,-3.352 3.18,-3.438c2.12,0.029 3.194,1.175 3.223,3.438c0,0.144 0,0.258 0,0.344l-5.07,0c0.057,1.232 0.716,1.891 1.977,1.977c0.944,-0.029 1.531,-0.43 1.761,-1.204zm-3.739,-1.675l3.781,0c-0.058,-1.231 -0.673,-1.876 -1.848,-1.934c-1.202,0.058 -1.847,0.702 -1.933,1.934z" fill="#595757"/>
   <path id="svg_86" d="m662.755,122.424l0,3.266l-1.289,0l0,-6.316l1.289,0l0,1.203c0.315,-0.888 0.874,-1.346 1.676,-1.375c0.372,0 0.759,0.115 1.16,0.344l-0.473,1.16c-0.229,-0.2 -0.53,-0.301 -0.902,-0.301c-0.945,0.057 -1.433,0.73 -1.461,2.019z" fill="#595757"/>
  </g>
  <g id="svg_87">
   <path id="svg_88" d="m207.869,227.327c0.109,6.29 -2.215,9.378 -6.973,9.27c-4.594,-0.11 -6.919,-3.171 -6.973,-9.188c0.164,-6.124 2.488,-9.296 6.973,-9.516c4.594,0.055 6.918,3.199 6.973,9.434zm-4.265,0.082c0.054,-4.43 -0.82,-6.589 -2.625,-6.48c-1.86,-0.054 -2.789,2.106 -2.789,6.48c0,4.212 0.929,6.316 2.789,6.316c1.804,0 2.678,-2.104 2.625,-6.316z" fill="#3FA304"/>
   <path id="svg_89" d="m223.701,232.577l-2.215,0l0,3.773l-3.527,0l0,-3.773l-8.859,0l0,-2.543l8.531,-11.812l3.855,0l0,11.484l2.215,0l0,2.871zm-5.66,-10.5c-0.164,0.383 -0.41,0.82 -0.738,1.312l-4.43,6.316l5.086,0l0,-5.742c0,-0.82 0.027,-1.448 0.082,-1.886z" fill="#3FA304"/>
   <path id="svg_90" d="m229.197,236.35l-4.266,0l0,-4.102l4.266,0l0,4.102z" fill="#3FA304"/>
   <path id="svg_91" d="m235.432,233.151l8.613,0l0,3.199l-13.371,0l0,-2.379c1.53,-2.297 3.308,-4.184 5.332,-5.66c2.843,-2.133 4.155,-3.718 3.938,-4.758c-0.055,-1.585 -0.875,-2.379 -2.461,-2.379c-1.641,-0.054 -2.653,0.958 -3.035,3.035l-3.691,-0.738c0.71,-3.663 3.144,-5.496 7.301,-5.496c3.773,0.164 5.796,1.887 6.07,5.168c0.273,2.297 -1.066,4.294 -4.02,5.988c-1.916,1.368 -3.474,2.707 -4.676,4.02z" fill="#3FA304"/>
   <path id="svg_92" d="m258.975,222.405l-3.773,0.656c-0.328,-1.477 -1.148,-2.187 -2.461,-2.133c-2.133,-0.054 -3.228,1.86 -3.281,5.742c0.929,-1.257 2.297,-1.914 4.102,-1.969c3.609,0.219 5.55,2.133 5.824,5.742c-0.219,3.938 -2.434,5.988 -6.645,6.152c-4.922,0.164 -7.329,-2.925 -7.219,-9.27c0.164,-6.124 2.543,-9.27 7.137,-9.434c3.445,0.002 5.549,1.507 6.316,4.514zm-3.446,8.285c-0.055,-1.914 -1.04,-2.898 -2.953,-2.953c-1.86,0.055 -2.844,0.984 -2.953,2.789c0.054,1.969 1.093,3.008 3.117,3.117c1.75,-0.164 2.679,-1.148 2.789,-2.953z" fill="#3FA304"/>
  </g>
  <g id="svg_93">
   <path id="svg_94" d="m324.207,86.237c0.109,6.29 -2.215,9.378 -6.973,9.27c-4.594,-0.11 -6.919,-3.171 -6.973,-9.188c0.164,-6.124 2.488,-9.296 6.973,-9.516c4.594,0.055 6.917,3.199 6.973,9.434zm-4.266,0.082c0.054,-4.43 -0.82,-6.589 -2.625,-6.48c-1.86,-0.054 -2.789,2.106 -2.789,6.48c0,4.212 0.929,6.316 2.789,6.316c1.805,0 2.679,-2.104 2.625,-6.316z" fill="#898989"/>
   <path id="svg_95" d="m332.656,95.178l-4.102,0c0.546,-5.031 2.515,-9.871 5.906,-14.52l-8.941,0l0,-3.281l13.371,0l0,2.871c-3.773,4.758 -5.852,9.735 -6.234,14.93z" fill="#898989"/>
   <path id="svg_96" d="m344.468,95.26l-4.266,0l0,-4.102l4.266,0l0,4.102z" fill="#898989"/>
   <path id="svg_97" d="m350.703,92.061l8.613,0l0,3.199l-13.371,0l0,-2.379c1.53,-2.297 3.308,-4.184 5.332,-5.66c2.843,-2.133 4.155,-3.718 3.938,-4.758c-0.055,-1.585 -0.875,-2.379 -2.461,-2.379c-1.641,-0.054 -2.653,0.958 -3.035,3.035l-3.691,-0.738c0.71,-3.663 3.144,-5.496 7.301,-5.496c3.773,0.164 5.796,1.887 6.07,5.168c0.273,2.297 -1.066,4.294 -4.02,5.988c-1.916,1.368 -3.474,2.708 -4.676,4.02z" fill="#898989"/>
   <path id="svg_98" d="m374.738,86.237c0.109,6.29 -2.215,9.378 -6.973,9.27c-4.594,-0.11 -6.919,-3.171 -6.973,-9.188c0.164,-6.124 2.488,-9.296 6.973,-9.516c4.594,0.055 6.918,3.199 6.973,9.434zm-4.266,0.082c0.054,-4.43 -0.82,-6.589 -2.625,-6.48c-1.86,-0.054 -2.789,2.106 -2.789,6.48c0,4.212 0.929,6.316 2.789,6.316c1.805,0 2.679,-2.104 2.625,-6.316z" fill="#898989"/>
  </g>
  <g id="svg_99">
   <path id="svg_100" d="m445.445,228.327c0.109,6.29 -2.215,9.378 -6.973,9.27c-4.594,-0.11 -6.919,-3.171 -6.973,-9.188c0.164,-6.124 2.488,-9.296 6.973,-9.516c4.594,0.056 6.918,3.2 6.973,9.434zm-4.265,0.082c0.054,-4.43 -0.82,-6.589 -2.625,-6.48c-1.86,-0.054 -2.789,2.106 -2.789,6.48c0,4.212 0.929,6.316 2.789,6.316c1.804,0.001 2.678,-2.104 2.625,-6.316z" fill="#898989"/>
   <path id="svg_101" d="m450.859,227.999l0,-0.082c-2.188,-0.546 -3.31,-1.94 -3.363,-4.184c0.328,-3.062 2.488,-4.676 6.48,-4.84c3.991,0.164 6.152,1.778 6.48,4.84c0,2.188 -1.259,3.583 -3.773,4.184c2.734,0.547 4.155,2.024 4.266,4.43c-0.055,3.499 -2.516,5.25 -7.383,5.25c-4.266,-0.11 -6.48,-1.805 -6.645,-5.086c0.11,-2.351 1.422,-3.856 3.938,-4.512zm5.989,4.43c0.054,-1.477 -0.958,-2.461 -3.035,-2.953c-1.86,0.492 -2.789,1.45 -2.789,2.871c0.109,1.587 1.066,2.434 2.871,2.543c1.913,-0.054 2.897,-0.874 2.953,-2.461zm-0.493,-8.45c0,-1.421 -0.793,-2.133 -2.379,-2.133c-1.532,0.055 -2.325,0.767 -2.379,2.133c-0.055,1.204 0.738,2.024 2.379,2.461c1.586,-0.437 2.379,-1.257 2.379,-2.461z" fill="#898989"/>
   <path id="svg_102" d="m466.609,237.351l-4.266,0l0,-4.102l4.266,0l0,4.102z" fill="#898989"/>
   <path id="svg_103" d="m482.031,228.327c0.109,6.29 -2.215,9.378 -6.973,9.27c-4.594,-0.11 -6.919,-3.171 -6.973,-9.188c0.164,-6.124 2.488,-9.296 6.973,-9.516c4.594,0.056 6.918,3.2 6.973,9.434zm-4.265,0.082c0.054,-4.43 -0.82,-6.589 -2.625,-6.48c-1.86,-0.054 -2.789,2.106 -2.789,6.48c0,4.212 0.929,6.316 2.789,6.316c1.804,0.001 2.678,-2.104 2.625,-6.316z" fill="#898989"/>
   <path id="svg_104" d="m496.961,223.405l-3.773,0.656c-0.328,-1.477 -1.148,-2.187 -2.461,-2.133c-2.133,-0.054 -3.228,1.86 -3.281,5.742c0.929,-1.257 2.297,-1.914 4.102,-1.969c3.609,0.219 5.55,2.133 5.824,5.742c-0.219,3.938 -2.434,5.988 -6.645,6.152c-4.922,0.164 -7.329,-2.925 -7.219,-9.27c0.164,-6.124 2.543,-9.27 7.137,-9.434c3.445,0.003 5.549,1.507 6.316,4.514zm-3.445,8.285c-0.055,-1.914 -1.04,-2.898 -2.953,-2.953c-1.86,0.055 -2.844,0.984 -2.953,2.789c0.054,1.969 1.093,3.008 3.117,3.117c1.749,-0.164 2.678,-1.148 2.789,-2.953z" fill="#898989"/>
  </g>
  <g id="svg_105">
   <path id="svg_106" d="m431.32,252.151l1.375,-0.301c0.2,1.404 1.017,2.105 2.449,2.105c1.26,-0.028 1.919,-0.53 1.977,-1.504c0.086,-0.659 -0.501,-1.16 -1.762,-1.504c-0.115,-0.057 -0.358,-0.129 -0.73,-0.215c-0.115,-0.028 -0.201,-0.043 -0.258,-0.043c-1.919,-0.401 -2.822,-1.217 -2.707,-2.449c0.114,-1.489 1.16,-2.277 3.137,-2.363c2.005,-0.028 3.18,0.773 3.523,2.406l-1.332,0.301c-0.201,-1.06 -0.902,-1.59 -2.105,-1.59c-1.117,0.029 -1.719,0.444 -1.805,1.246c-0.086,0.659 0.602,1.132 2.062,1.418c0.573,0.144 1.002,0.258 1.289,0.344c1.461,0.458 2.177,1.261 2.148,2.406c-0.058,1.633 -1.189,2.478 -3.395,2.535c-2.205,0.058 -3.494,-0.872 -3.866,-2.792z" fill="#595757"/>
   <path id="svg_107" d="m445.715,254.772l-1.289,0l0,-1.074c-0.458,0.802 -1.16,1.217 -2.105,1.246c-1.576,0 -2.363,-0.831 -2.363,-2.492l0,-3.996l1.289,0l0,3.867c0,1.117 0.501,1.676 1.504,1.676c1.031,-0.086 1.59,-0.702 1.676,-1.848l0,-3.695l1.289,0l0,6.316l-0.001,0z" fill="#595757"/>
   <path id="svg_108" d="m453.191,250.304l-1.332,0.258c-0.287,-0.745 -0.816,-1.146 -1.59,-1.203c-1.232,0.058 -1.862,0.831 -1.891,2.32c0.028,1.49 0.659,2.249 1.891,2.277c0.945,-0.028 1.489,-0.516 1.633,-1.461l1.375,0.172c-0.373,1.576 -1.39,2.334 -3.051,2.277c-2.091,-0.058 -3.166,-1.146 -3.223,-3.266c0.057,-2.206 1.131,-3.337 3.223,-3.395c1.49,0.059 2.478,0.732 2.965,2.021z" fill="#595757"/>
   <path id="svg_109" d="m460.152,250.304l-1.332,0.258c-0.287,-0.745 -0.816,-1.146 -1.59,-1.203c-1.232,0.058 -1.862,0.831 -1.891,2.32c0.028,1.49 0.659,2.249 1.891,2.277c0.945,-0.028 1.489,-0.516 1.633,-1.461l1.375,0.172c-0.373,1.576 -1.39,2.334 -3.051,2.277c-2.091,-0.058 -3.166,-1.146 -3.223,-3.266c0.057,-2.206 1.131,-3.337 3.223,-3.395c1.49,0.059 2.478,0.732 2.965,2.021z" fill="#595757"/>
   <path id="svg_110" d="m465.953,252.839l1.375,0.215c-0.458,1.26 -1.504,1.891 -3.137,1.891c-2.12,-0.086 -3.223,-1.16 -3.309,-3.223c0.086,-2.206 1.146,-3.352 3.18,-3.438c2.12,0.029 3.194,1.175 3.223,3.438c0,0.144 0,0.258 0,0.344l-5.07,0c0.057,1.232 0.716,1.891 1.977,1.977c0.945,-0.029 1.532,-0.431 1.761,-1.204zm-3.738,-1.676l3.781,0c-0.058,-1.231 -0.673,-1.876 -1.848,-1.934c-1.203,0.058 -1.847,0.703 -1.933,1.934z" fill="#595757"/>
   <path id="svg_111" d="m473.688,250.003l-1.289,0.172c-0.172,-0.63 -0.645,-0.945 -1.418,-0.945c-0.831,0 -1.246,0.301 -1.246,0.902c-0.058,0.43 0.415,0.73 1.418,0.902c0.315,0.086 0.645,0.172 0.988,0.258c1.26,0.287 1.862,0.888 1.805,1.805c-0.029,1.203 -0.931,1.819 -2.707,1.848c-1.805,0.086 -2.836,-0.544 -3.094,-1.891l1.289,-0.215c0.2,0.831 0.773,1.232 1.719,1.203c0.945,0 1.432,-0.329 1.461,-0.988c0.057,-0.43 -0.373,-0.745 -1.289,-0.945c-0.086,0 -0.229,-0.028 -0.43,-0.086c-0.258,-0.057 -0.444,-0.1 -0.559,-0.129c-1.347,-0.315 -2.005,-0.888 -1.977,-1.719c0.086,-1.203 0.931,-1.833 2.535,-1.891c1.547,-0.028 2.478,0.545 2.794,1.719z" fill="#595757"/>
   <path id="svg_112" d="m480.391,250.003l-1.289,0.172c-0.172,-0.63 -0.645,-0.945 -1.418,-0.945c-0.831,0 -1.246,0.301 -1.246,0.902c-0.058,0.43 0.415,0.73 1.418,0.902c0.315,0.086 0.645,0.172 0.988,0.258c1.26,0.287 1.862,0.888 1.805,1.805c-0.029,1.203 -0.931,1.819 -2.707,1.848c-1.805,0.086 -2.836,-0.544 -3.094,-1.891l1.289,-0.215c0.2,0.831 0.773,1.232 1.719,1.203c0.945,0 1.432,-0.329 1.461,-0.988c0.057,-0.43 -0.373,-0.745 -1.289,-0.945c-0.086,0 -0.229,-0.028 -0.43,-0.086c-0.258,-0.057 -0.444,-0.1 -0.559,-0.129c-1.347,-0.315 -2.005,-0.888 -1.977,-1.719c0.086,-1.203 0.931,-1.833 2.535,-1.891c1.548,-0.028 2.478,0.545 2.794,1.719z" fill="#595757"/>
   <path id="svg_113" d="m483.57,247.64l0,0.816l1.418,0l0,0.988l-1.418,0l0,5.328l-1.289,0l0,-5.328l-1.117,0l0,-0.988l1.117,0l0,-0.816c-0.058,-1.403 0.573,-2.077 1.891,-2.02c0.573,0 1.06,0.072 1.461,0.215l-0.387,0.945c-0.229,-0.114 -0.473,-0.172 -0.73,-0.172c-0.66,-0.028 -0.974,0.316 -0.946,1.032z" fill="#595757"/>
   <path id="svg_114" d="m491.562,254.772l-1.289,0l0,-1.074c-0.458,0.802 -1.16,1.217 -2.105,1.246c-1.576,0 -2.363,-0.831 -2.363,-2.492l0,-3.996l1.289,0l0,3.867c0,1.117 0.501,1.676 1.504,1.676c1.031,-0.086 1.59,-0.702 1.676,-1.848l0,-3.695l1.289,0l0,6.316l-0.001,0z" fill="#595757"/>
   <path id="svg_115" d="m493.152,254.772l0,-9.066l1.332,0l0,9.066l-1.332,0z" fill="#595757"/>
   <path id="svg_116" d="m505.184,254.772l-1.246,0c-0.172,-0.229 -0.287,-0.587 -0.344,-1.074c-0.516,0.802 -1.433,1.217 -2.75,1.246c-1.318,-0.058 -2.005,-0.645 -2.062,-1.762c0,-1.146 0.788,-1.819 2.363,-2.02c1.375,-0.2 2.177,-0.43 2.406,-0.688c0.057,-0.888 -0.458,-1.303 -1.547,-1.246c-1.003,0 -1.59,0.387 -1.762,1.16l-1.246,-0.215c0.315,-1.289 1.317,-1.919 3.008,-1.891c1.977,-0.057 2.922,0.788 2.836,2.535c0,0.773 0,1.647 0,2.621c0,0.518 0.114,0.962 0.344,1.334zm-1.547,-2.664l0,-0.816c-0.344,0.315 -0.974,0.53 -1.891,0.645c-1.146,0.144 -1.705,0.544 -1.676,1.203c-0.029,0.63 0.415,0.931 1.332,0.902c1.375,-0.086 2.12,-0.73 2.235,-1.934z" fill="#595757"/>
   <path id="svg_117" d="m512.102,254.772l-1.289,0l0,-1.074c-0.458,0.802 -1.16,1.217 -2.105,1.246c-1.576,0 -2.363,-0.831 -2.363,-2.492l0,-3.996l1.289,0l0,3.867c0,1.117 0.501,1.676 1.504,1.676c1.031,-0.086 1.59,-0.702 1.676,-1.848l0,-3.695l1.289,0l0,6.316l-0.001,0z" fill="#595757"/>
   <path id="svg_118" d="m515.367,246.093l0,2.363l1.418,0l0,0.988l-1.418,0l0,3.609c-0.029,0.659 0.229,0.974 0.773,0.945c0.229,0 0.43,-0.043 0.602,-0.129l0.215,0.73c-0.287,0.229 -0.702,0.344 -1.246,0.344c-1.117,0.028 -1.662,-0.53 -1.633,-1.676l0,-3.824l-1.031,0l0,-0.988l1.031,0l0,-2.02l1.289,-0.342z" fill="#595757"/>
   <path id="svg_119" d="m523.617,254.772l-1.289,0l0,-3.738c0,-1.146 -0.487,-1.719 -1.461,-1.719c-1.089,0.058 -1.662,0.702 -1.719,1.934l0,3.523l-1.289,0l0,-9.066l1.289,0l0,3.867c0.516,-0.831 1.246,-1.26 2.191,-1.289c1.547,-0.028 2.306,0.816 2.277,2.535l0,3.953l0.001,0z" fill="#595757"/>
   <path id="svg_120" d="m528.086,248.327c2.005,0.086 3.051,1.203 3.137,3.352c-0.058,2.12 -1.132,3.208 -3.223,3.266c-2.005,-0.115 -3.065,-1.188 -3.18,-3.223c0.086,-2.177 1.175,-3.309 3.266,-3.395zm-0.043,5.672c1.203,-0.028 1.819,-0.802 1.848,-2.32c-0.058,-1.461 -0.673,-2.234 -1.848,-2.32c-1.232,0.029 -1.862,0.802 -1.891,2.32c0.029,1.489 0.659,2.263 1.891,2.32z" fill="#595757"/>
   <path id="svg_121" d="m533.629,251.507l0,3.266l-1.289,0l0,-6.316l1.289,0l0,1.203c0.315,-0.888 0.874,-1.346 1.676,-1.375c0.372,0 0.759,0.115 1.16,0.344l-0.473,1.16c-0.229,-0.2 -0.53,-0.301 -0.902,-0.301c-0.945,0.057 -1.433,0.73 -1.461,2.019z" fill="#595757"/>
   <path id="svg_122" d="m437.336,270.908l-1.289,0l0,-3.781c0,-1.146 -0.487,-1.704 -1.461,-1.676c-1.003,0.058 -1.576,0.645 -1.719,1.762l0,3.695l-1.289,0l0,-6.359l1.289,0l0,1.117c0.516,-0.802 1.246,-1.231 2.191,-1.289c1.547,-0.028 2.306,0.831 2.277,2.578l0,3.953l0.001,0z" fill="#595757"/>
   <path id="svg_123" d="m441.848,264.419c2.005,0.086 3.051,1.203 3.137,3.352c-0.058,2.12 -1.132,3.208 -3.223,3.266c-2.005,-0.115 -3.065,-1.188 -3.18,-3.223c0.086,-2.177 1.174,-3.309 3.266,-3.395zm-0.043,5.672c1.203,-0.028 1.819,-0.802 1.848,-2.32c-0.058,-1.461 -0.673,-2.234 -1.848,-2.32c-1.232,0.029 -1.862,0.802 -1.891,2.32c0.028,1.49 0.659,2.263 1.891,2.32z" fill="#595757"/>
   <path id="svg_124" d="m447.863,262.185l0,2.363l1.418,0l0,0.988l-1.418,0l0,3.609c-0.029,0.659 0.229,0.974 0.773,0.945c0.229,0 0.43,-0.043 0.602,-0.129l0.215,0.73c-0.287,0.229 -0.702,0.344 -1.246,0.344c-1.117,0.028 -1.662,-0.53 -1.633,-1.676l0,-3.824l-1.031,0l0,-0.988l1.031,0l0,-2.02l1.289,-0.342z" fill="#595757"/>
   <path id="svg_125" d="m450.312,263.345l0,-1.332l1.332,0l0,1.332l-1.332,0zm0,7.52l0,-6.316l1.332,0l0,6.316l-1.332,0z" fill="#595757"/>
   <path id="svg_126" d="m454.824,263.732l0,0.816l1.418,0l0,0.988l-1.418,0l0,5.328l-1.289,0l0,-5.328l-1.117,0l0,-0.988l1.117,0l0,-0.816c-0.058,-1.403 0.573,-2.077 1.891,-2.02c0.573,0 1.06,0.072 1.461,0.215l-0.387,0.945c-0.229,-0.114 -0.473,-0.172 -0.73,-0.172c-0.66,-0.028 -0.975,0.316 -0.946,1.032z" fill="#595757"/>
   <path id="svg_127" d="m457.059,263.345l0,-1.332l1.332,0l0,1.332l-1.332,0zm0,7.52l0,-6.316l1.332,0l0,6.316l-1.332,0z" fill="#595757"/>
   <path id="svg_128" d="m465.824,266.396l-1.332,0.258c-0.287,-0.745 -0.816,-1.146 -1.59,-1.203c-1.232,0.058 -1.862,0.831 -1.891,2.32c0.028,1.49 0.659,2.249 1.891,2.277c0.945,-0.028 1.489,-0.516 1.633,-1.461l1.375,0.172c-0.373,1.576 -1.39,2.334 -3.051,2.277c-2.091,-0.058 -3.166,-1.146 -3.223,-3.266c0.057,-2.206 1.131,-3.337 3.223,-3.395c1.49,0.059 2.478,0.732 2.965,2.021z" fill="#595757"/>
   <path id="svg_129" d="m473,270.865l-1.246,0c-0.172,-0.229 -0.287,-0.587 -0.344,-1.074c-0.516,0.802 -1.433,1.217 -2.75,1.246c-1.318,-0.058 -2.005,-0.645 -2.062,-1.762c0,-1.146 0.788,-1.819 2.363,-2.02c1.375,-0.2 2.177,-0.43 2.406,-0.688c0.057,-0.888 -0.458,-1.303 -1.547,-1.246c-1.003,0 -1.59,0.387 -1.762,1.16l-1.246,-0.215c0.315,-1.289 1.317,-1.919 3.008,-1.891c1.977,-0.057 2.922,0.788 2.836,2.535c0,0.773 0,1.647 0,2.621c0,0.517 0.115,0.961 0.344,1.334zm-1.547,-2.664l0,-0.816c-0.344,0.315 -0.974,0.53 -1.891,0.645c-1.146,0.144 -1.705,0.544 -1.676,1.203c-0.029,0.63 0.415,0.931 1.332,0.902c1.376,-0.087 2.12,-0.731 2.235,-1.934z" fill="#595757"/>
   <path id="svg_130" d="m475.836,262.185l0,2.363l1.418,0l0,0.988l-1.418,0l0,3.609c-0.029,0.659 0.229,0.974 0.773,0.945c0.229,0 0.43,-0.043 0.602,-0.129l0.215,0.73c-0.287,0.229 -0.702,0.344 -1.246,0.344c-1.117,0.028 -1.662,-0.53 -1.633,-1.676l0,-3.824l-1.031,0l0,-0.988l1.031,0l0,-2.02l1.289,-0.342z" fill="#595757"/>
   <path id="svg_131" d="m478.285,263.345l0,-1.332l1.332,0l0,1.332l-1.332,0zm0,7.52l0,-6.316l1.332,0l0,6.316l-1.332,0z" fill="#595757"/>
   <path id="svg_132" d="m484.086,264.419c2.005,0.086 3.051,1.203 3.137,3.352c-0.058,2.12 -1.132,3.208 -3.223,3.266c-2.005,-0.115 -3.065,-1.188 -3.18,-3.223c0.086,-2.177 1.175,-3.309 3.266,-3.395zm-0.043,5.672c1.203,-0.028 1.819,-0.802 1.848,-2.32c-0.058,-1.461 -0.673,-2.234 -1.848,-2.32c-1.232,0.029 -1.862,0.802 -1.891,2.32c0.029,1.49 0.659,2.263 1.891,2.32z" fill="#595757"/>
   <path id="svg_133" d="m494.227,270.908l-1.289,0l0,-3.781c0,-1.146 -0.487,-1.704 -1.461,-1.676c-1.003,0.058 -1.576,0.645 -1.719,1.762l0,3.695l-1.289,0l0,-6.359l1.289,0l0,1.117c0.516,-0.802 1.246,-1.231 2.191,-1.289c1.547,-0.028 2.306,0.831 2.277,2.578l0,3.953l0.001,0z" fill="#595757"/>
  </g>
  <g id="svg_134">
   <path id="svg_135" d="m577.622,96.243c0.109,6.29 -2.215,9.378 -6.973,9.27c-4.594,-0.11 -6.919,-3.171 -6.973,-9.188c0.164,-6.124 2.488,-9.296 6.973,-9.516c4.594,0.055 6.918,3.199 6.973,9.434zm-4.266,0.082c0.054,-4.43 -0.82,-6.589 -2.625,-6.48c-1.86,-0.054 -2.789,2.106 -2.789,6.48c0,4.212 0.929,6.316 2.789,6.316c1.805,0 2.679,-2.104 2.625,-6.316z" fill="#898989"/>
   <path id="svg_136" d="m579.427,101.083l3.691,-0.574c0.328,1.423 1.175,2.133 2.543,2.133c2.078,0.055 3.171,-1.858 3.281,-5.742c-0.931,1.204 -2.297,1.833 -4.102,1.887c-3.665,-0.164 -5.578,-2.022 -5.742,-5.578c0.273,-4.046 2.515,-6.179 6.727,-6.398c4.867,-0.164 7.219,2.899 7.055,9.188c0,6.29 -2.434,9.46 -7.301,9.516c-3.445,-0.003 -5.496,-1.479 -6.152,-4.432zm9.351,-8.04c-0.055,-2.078 -1.066,-3.144 -3.035,-3.199c-1.751,0.11 -2.68,1.148 -2.789,3.117c0.054,1.86 1.011,2.844 2.871,2.953c1.914,-0.053 2.898,-1.011 2.953,-2.871z" fill="#898989"/>
   <path id="svg_137" d="m598.54,105.266l-4.266,0l0,-4.102l4.266,0l0,4.102z" fill="#898989"/>
   <path id="svg_138" d="m613.962,96.243c0.109,6.29 -2.215,9.378 -6.973,9.27c-4.594,-0.11 -6.919,-3.171 -6.973,-9.188c0.164,-6.124 2.488,-9.296 6.973,-9.516c4.594,0.055 6.918,3.199 6.973,9.434zm-4.266,0.082c0.054,-4.43 -0.82,-6.589 -2.625,-6.48c-1.86,-0.054 -2.789,2.106 -2.789,6.48c0,4.212 0.929,6.316 2.789,6.316c1.805,0 2.679,-2.104 2.625,-6.316z" fill="#898989"/>
   <path id="svg_139" d="m628.892,91.321l-3.773,0.656c-0.328,-1.477 -1.148,-2.187 -2.461,-2.133c-2.133,-0.054 -3.228,1.86 -3.281,5.742c0.929,-1.257 2.297,-1.914 4.102,-1.969c3.609,0.219 5.55,2.133 5.824,5.742c-0.219,3.938 -2.434,5.988 -6.645,6.152c-4.922,0.164 -7.329,-2.925 -7.219,-9.27c0.164,-6.124 2.543,-9.27 7.137,-9.434c3.445,0.002 5.549,1.507 6.316,4.514zm-3.446,8.285c-0.055,-1.914 -1.04,-2.898 -2.953,-2.953c-1.86,0.055 -2.844,0.984 -2.953,2.789c0.054,1.969 1.093,3.008 3.117,3.117c1.75,-0.164 2.679,-1.148 2.789,-2.953z" fill="#898989"/>
  </g>
  <g id="svg_140">
   <path id="svg_141" d="m693.258,241.353l-4.02,0l0,-12.633c-1.805,1.312 -3.72,2.297 -5.742,2.953l0,-3.445c2.898,-1.093 5.113,-2.761 6.645,-5.004l3.117,0l0,18.129z" fill="#898989"/>
   <path id="svg_142" d="m709.829,232.33c0.109,6.29 -2.215,9.378 -6.973,9.27c-4.594,-0.11 -6.919,-3.171 -6.973,-9.188c0.164,-6.124 2.488,-9.296 6.973,-9.516c4.594,0.055 6.917,3.199 6.973,9.434zm-4.266,0.082c0.054,-4.43 -0.82,-6.589 -2.625,-6.48c-1.86,-0.054 -2.789,2.106 -2.789,6.48c0,4.212 0.929,6.316 2.789,6.316c1.805,0 2.679,-2.104 2.625,-6.316z" fill="#898989"/>
   <path id="svg_143" d="m715.653,241.353l-4.266,0l0,-4.102l4.266,0l0,4.102z" fill="#898989"/>
   <path id="svg_144" d="m726.727,241.353l-4.02,0l0,-12.633c-1.805,1.312 -3.72,2.297 -5.742,2.953l0,-3.445c2.898,-1.093 5.113,-2.761 6.645,-5.004l3.117,0l0,18.129z" fill="#898989"/>
   <path id="svg_145" d="m733.29,232.001l0,-0.082c-2.188,-0.546 -3.31,-1.94 -3.363,-4.184c0.328,-3.062 2.488,-4.676 6.48,-4.84c3.991,0.164 6.152,1.778 6.48,4.84c0,2.188 -1.259,3.583 -3.773,4.184c2.734,0.547 4.155,2.024 4.266,4.43c-0.055,3.499 -2.516,5.25 -7.383,5.25c-4.266,-0.11 -6.48,-1.805 -6.645,-5.086c0.109,-2.35 1.421,-3.855 3.938,-4.512zm5.988,4.43c0.054,-1.477 -0.958,-2.461 -3.035,-2.953c-1.86,0.492 -2.789,1.45 -2.789,2.871c0.109,1.587 1.066,2.434 2.871,2.543c1.913,-0.054 2.898,-0.874 2.953,-2.461zm-0.492,-8.449c0,-1.421 -0.793,-2.133 -2.379,-2.133c-1.532,0.055 -2.325,0.767 -2.379,2.133c-0.055,1.204 0.738,2.024 2.379,2.461c1.585,-0.437 2.379,-1.257 2.379,-2.461z" fill="#898989"/>
   <path id="svg_146" d="m756.094,233.724l-11.484,0l0,-2.789l11.484,0l0,2.789z" fill="#898989"/>
   <path id="svg_147" d="m766.922,241.353l-4.02,0l0,-12.633c-1.805,1.312 -3.72,2.297 -5.742,2.953l0,-3.445c2.898,-1.093 5.113,-2.761 6.645,-5.004l3.117,0l0,18.129z" fill="#898989"/>
   <path id="svg_148" d="m783.493,232.33c0.109,6.29 -2.215,9.378 -6.973,9.27c-4.594,-0.11 -6.919,-3.171 -6.973,-9.188c0.164,-6.124 2.488,-9.296 6.973,-9.516c4.594,0.055 6.918,3.199 6.973,9.434zm-4.266,0.082c0.054,-4.43 -0.82,-6.589 -2.625,-6.48c-1.86,-0.054 -2.789,2.106 -2.789,6.48c0,4.212 0.929,6.316 2.789,6.316c1.805,0 2.679,-2.104 2.625,-6.316z" fill="#898989"/>
   <path id="svg_149" d="m789.317,241.353l-4.266,0l0,-4.102l4.266,0l0,4.102z" fill="#898989"/>
   <path id="svg_150" d="m795.551,238.154l8.613,0l0,3.199l-13.371,0l0,-2.379c1.53,-2.297 3.308,-4.184 5.332,-5.66c2.843,-2.133 4.155,-3.718 3.938,-4.758c-0.055,-1.585 -0.875,-2.379 -2.461,-2.379c-1.641,-0.054 -2.653,0.958 -3.035,3.035l-3.691,-0.738c0.71,-3.663 3.144,-5.496 7.301,-5.496c3.773,0.164 5.796,1.887 6.07,5.168c0.273,2.297 -1.066,4.294 -4.02,5.988c-1.915,1.368 -3.474,2.707 -4.676,4.02z" fill="#898989"/>
   <path id="svg_151" d="m815.239,241.353l-4.02,0l0,-12.633c-1.805,1.312 -3.72,2.297 -5.742,2.953l0,-3.445c2.898,-1.093 5.113,-2.761 6.645,-5.004l3.117,0l0,18.129z" fill="#898989"/>
  </g>
  <g id="svg_152">
   <rect id="svg_153" height="2" width="92.592" fill="#3FA304" y="169.582" x="112.833"/>
  </g>
  <text x="0" y="-16" id="svg_154" font-size="14" font-family="'FZLTZHK--GBK1-0'" fill="#FFFFFF" transform="matrix(1,0,0,1,57.3179,189.4531) ">2018</text>
  <g id="svg_155">
   <circle id="svg_156" r="21.006001" cy="168.667" cx="733.869" fill="#898989"/>
  </g>
  <line id="svg_157" y2="183.504" x2="929.824" y1="157.66" x1="929.824" stroke-miterlimit="10" stroke-width="2" stroke="#898989" fill="none"/>
  <g id="svg_158">
   <g id="svg_159">
    <circle id="svg_160" r="3.785" cy="170.582" cx="942.175" fill="#B5B5B6"/>
    <circle id="svg_161" r="3.785" cy="170.582" cx="942.175" stroke-miterlimit="10" stroke-width="2" stroke="#FFFFFF" fill="none"/>
   </g>
   <g id="svg_162">
    <circle id="svg_163" r="3.785" cy="170.582" cx="952.864" fill="#B5B5B6"/>
    <circle id="svg_164" r="3.785" cy="170.582" cx="952.864" stroke-miterlimit="10" stroke-width="2" stroke="#FFFFFF" fill="none"/>
   </g>
   <g id="svg_165">
    <circle id="svg_166" r="3.785" cy="170.582" cx="963.075" fill="#B5B5B6"/>
    <circle id="svg_167" r="3.785" cy="170.582" cx="963.075" stroke-miterlimit="10" stroke-width="2" stroke="#FFFFFF" fill="none"/>
   </g>
  </g>
  <path id="svg_168" d="m111.902,189.545c0,2.233 -1.811,4.044 -4.044,4.044l-66.722,0c-2.233,0 -4.044,-1.811 -4.044,-4.044l0,-39.09c0,-2.233 1.811,-4.044 4.044,-4.044l66.723,0c2.233,0 4.044,1.811 4.044,4.044l0,39.09l-0.001,0z" stroke-miterlimit="10" stroke-width="2" stroke="#3FA304" fill="none"/>
  <g id="svg_169">
   <circle id="svg_170" r="10.329" cy="170.582" cx="218.421" fill="#3FA304"/>
  </g>
  <g id="svg_171">
   <rect id="svg_172" height="2" width="89.287" fill="#898989" y="169.582" x="231.583"/>
  </g>
  <g id="svg_173">
   <rect id="svg_174" height="2" width="103.047" fill="#898989" y="169.582" x="346.716"/>
  </g>
  <g id="svg_175">
   <rect id="svg_176" height="2" width="105.62" fill="#898989" y="169.582" x="475.562"/>
  </g>
  <g id="svg_177">
   <rect id="svg_178" height="2" width="103.584" fill="#898989" y="169.582" x="607.028"/>
  </g>
  <g id="svg_179">
   <rect id="svg_180" height="2" width="73.742" fill="#898989" y="169" x="757.209"/>
  </g>
  <line id="svg_181" y2="170" x2="929.824" y1="170" x1="830.951" stroke-miterlimit="10" stroke-width="2" stroke="#898989" fill="none"/>
  <g id="svg_182">
   <circle id="svg_183" r="10.329" cy="170" cx="333.386" fill="#898989"/>
  </g>
  <g id="svg_184">
   <circle id="svg_185" r="10.329" cy="170" cx="462.421" fill="#898989"/>
  </g>
  <g id="svg_186">
   <circle id="svg_187" r="10.329" cy="170" cx="594.088" fill="#898989"/>
  </g>
 </g>
</svg>
